<?xml version="1.0"?>
<!-- Generated by SVGo -->
<svg width="324.327mm" height="105.252mm"
     viewBox="0.000 0.000 324.327 105.252"
     xmlns="http://www.w3.org/2000/svg" 
     xmlns:xlink="http://www.w3.org/1999/xlink">
<polygon points="319.327,100.251 5.001,100.251 5.001,5.001 319.327,5.001" style="fill:none;stroke-width:0.050000mm;stroke:black"/>
<polygon points="136.113,83.726 136.113,88.426 89.463,88.426 89.463,85.196 82.713,85.196 82.713,88.426 81.888,88.426 81.888,91.226 82.713,91.226 82.713,97.495 84.438,97.495 84.438,98.696 87.738,98.696 87.738,97.495 89.463,97.495 89.463,93.025 136.113,93.025 136.113,97.726 150.113,97.726 150.113,93.025 177.713,93.025 177.713,97.495 179.438,97.495 179.438,98.696 182.738,98.696 182.738,97.495 184.463,97.495 184.463,91.226 185.288,91.226 185.288,88.426 184.463,88.426 184.463,85.196 177.713,85.196 177.713,88.426 150.113,88.426 150.113,83.726" style="fill:none;stroke-width:0.050000mm;stroke:black"/>
<polygon points="17.051,83.726 17.051,97.726 31.051,97.726 31.051,83.726" style="fill:none;stroke-width:0.050000mm;stroke:black"/>
<polygon points="45.626,83.726 45.626,97.726 59.626,97.726 59.626,83.726" style="fill:none;stroke-width:0.050000mm;stroke:black"/>
<polygon points="207.551,83.726 207.551,97.726 221.551,97.726 221.551,83.726" style="fill:none;stroke-width:0.050000mm;stroke:black"/>
<polygon points="236.126,83.726 236.126,97.726 250.126,97.726 250.126,83.726" style="fill:none;stroke-width:0.050000mm;stroke:black"/>
<polygon points="293.276,83.726 293.276,97.726 307.276,97.726 307.276,83.726" style="fill:none;stroke-width:0.050000mm;stroke:black"/>
<polygon points="17.051,64.676 17.051,78.676 31.051,78.676 31.051,64.676" style="fill:none;stroke-width:0.050000mm;stroke:black"/>
<polygon points="40.863,64.676 40.863,78.676 54.863,78.676 54.863,64.676" style="fill:none;stroke-width:0.050000mm;stroke:black"/>
<polygon points="59.913,64.676 59.913,78.676 73.913,78.676 73.913,64.676" style="fill:none;stroke-width:0.050000mm;stroke:black"/>
<polygon points="78.963,64.676 78.963,78.676 92.963,78.676 92.963,64.676" style="fill:none;stroke-width:0.050000mm;stroke:black"/>
<polygon points="98.013,64.676 98.013,78.676 112.013,78.676 112.013,64.676" style="fill:none;stroke-width:0.050000mm;stroke:black"/>
<polygon points="117.063,64.676 117.063,78.676 131.063,78.676 131.063,64.676" style="fill:none;stroke-width:0.050000mm;stroke:black"/>
<polygon points="136.113,64.676 136.113,78.676 150.113,78.676 150.113,64.676" style="fill:none;stroke-width:0.050000mm;stroke:black"/>
<polygon points="155.163,64.676 155.163,78.676 169.163,78.676 169.163,64.676" style="fill:none;stroke-width:0.050000mm;stroke:black"/>
<polygon points="174.213,64.676 174.213,78.676 188.213,78.676 188.213,64.676" style="fill:none;stroke-width:0.050000mm;stroke:black"/>
<polygon points="193.263,64.676 193.263,78.676 207.263,78.676 207.263,64.676" style="fill:none;stroke-width:0.050000mm;stroke:black"/>
<polygon points="212.313,64.676 212.313,78.676 226.313,78.676 226.313,64.676" style="fill:none;stroke-width:0.050000mm;stroke:black"/>
<polygon points="236.126,64.676 236.126,78.676 250.126,78.676 250.126,64.676" style="fill:none;stroke-width:0.050000mm;stroke:black"/>
<polygon points="283.751,64.676 283.751,78.676 297.751,78.676 297.751,64.676" style="fill:none;stroke-width:0.050000mm;stroke:black"/>
<polygon points="302.801,64.676 302.801,78.676 316.801,78.676 316.801,64.676" style="fill:none;stroke-width:0.050000mm;stroke:black"/>
<polygon points="266.438,46.051 266.438,46.876 260.167,46.876 260.167,48.600 258.967,48.600 258.967,51.901 260.167,51.901 260.167,53.626 264.638,53.626 264.638,55.151 259.938,55.151 259.938,69.151 264.638,69.151 264.638,70.676 260.167,70.676 260.167,72.401 258.967,72.401 258.967,75.701 260.167,75.701 260.167,77.426 266.438,77.426 266.438,78.251 269.238,78.251 269.238,77.426 272.468,77.426 272.468,70.676 269.238,70.676 269.238,69.151 273.938,69.151 273.938,55.151 269.238,55.151 269.238,53.626 272.468,53.626 272.468,46.876 269.238,46.876 269.238,46.051" style="fill:none;stroke-width:0.050000mm;stroke:black"/>
<polygon points="12.288,45.626 12.288,59.626 26.288,59.626 26.288,45.626" style="fill:none;stroke-width:0.050000mm;stroke:black"/>
<polygon points="31.338,45.626 31.338,59.626 45.338,59.626 45.338,45.626" style="fill:none;stroke-width:0.050000mm;stroke:black"/>
<polygon points="50.388,45.626 50.388,59.626 64.388,59.626 64.388,45.626" style="fill:none;stroke-width:0.050000mm;stroke:black"/>
<polygon points="69.438,45.626 69.438,59.626 83.438,59.626 83.438,45.626" style="fill:none;stroke-width:0.050000mm;stroke:black"/>
<polygon points="88.488,45.626 88.488,59.626 102.488,59.626 102.488,45.626" style="fill:none;stroke-width:0.050000mm;stroke:black"/>
<polygon points="107.538,45.626 107.538,59.626 121.538,59.626 121.538,45.626" style="fill:none;stroke-width:0.050000mm;stroke:black"/>
<polygon points="126.588,45.626 126.588,59.626 140.588,59.626 140.588,45.626" style="fill:none;stroke-width:0.050000mm;stroke:black"/>
<polygon points="145.638,45.626 145.638,59.626 159.638,59.626 159.638,45.626" style="fill:none;stroke-width:0.050000mm;stroke:black"/>
<polygon points="164.688,45.626 164.688,59.626 178.688,59.626 178.688,45.626" style="fill:none;stroke-width:0.050000mm;stroke:black"/>
<polygon points="183.738,45.626 183.738,59.626 197.738,59.626 197.738,45.626" style="fill:none;stroke-width:0.050000mm;stroke:black"/>
<polygon points="202.788,45.626 202.788,59.626 216.788,59.626 216.788,45.626" style="fill:none;stroke-width:0.050000mm;stroke:black"/>
<polygon points="221.838,45.626 221.838,59.626 235.838,59.626 235.838,45.626" style="fill:none;stroke-width:0.050000mm;stroke:black"/>
<polygon points="240.888,45.626 240.888,59.626 254.888,59.626 254.888,45.626" style="fill:none;stroke-width:0.050000mm;stroke:black"/>
<polygon points="293.276,45.626 293.276,59.626 307.276,59.626 307.276,45.626" style="fill:none;stroke-width:0.050000mm;stroke:black"/>
<polygon points="7.526,26.576 7.526,40.576 21.526,40.576 21.526,26.576" style="fill:none;stroke-width:0.050000mm;stroke:black"/>
<polygon points="26.576,26.576 26.576,40.576 40.576,40.576 40.576,26.576" style="fill:none;stroke-width:0.050000mm;stroke:black"/>
<polygon points="45.626,26.576 45.626,40.576 59.626,40.576 59.626,26.576" style="fill:none;stroke-width:0.050000mm;stroke:black"/>
<polygon points="64.676,26.576 64.676,40.576 78.676,40.576 78.676,26.576" style="fill:none;stroke-width:0.050000mm;stroke:black"/>
<polygon points="83.726,26.576 83.726,40.576 97.726,40.576 97.726,26.576" style="fill:none;stroke-width:0.050000mm;stroke:black"/>
<polygon points="102.775,26.576 102.775,40.576 116.775,40.576 116.775,26.576" style="fill:none;stroke-width:0.050000mm;stroke:black"/>
<polygon points="121.825,26.576 121.825,40.576 135.826,40.576 135.826,26.576" style="fill:none;stroke-width:0.050000mm;stroke:black"/>
<polygon points="140.876,26.576 140.876,40.576 154.876,40.576 154.876,26.576" style="fill:none;stroke-width:0.050000mm;stroke:black"/>
<polygon points="159.926,26.576 159.926,40.576 173.926,40.576 173.926,26.576" style="fill:none;stroke-width:0.050000mm;stroke:black"/>
<polygon points="178.976,26.576 178.976,40.576 192.976,40.576 192.976,26.576" style="fill:none;stroke-width:0.050000mm;stroke:black"/>
<polygon points="198.026,26.576 198.026,40.576 212.026,40.576 212.026,26.576" style="fill:none;stroke-width:0.050000mm;stroke:black"/>
<polygon points="217.076,26.576 217.076,40.576 231.076,40.576 231.076,26.576" style="fill:none;stroke-width:0.050000mm;stroke:black"/>
<polygon points="236.126,26.576 236.126,40.576 250.126,40.576 250.126,26.576" style="fill:none;stroke-width:0.050000mm;stroke:black"/>
<polygon points="255.176,26.576 255.176,40.576 269.176,40.576 269.176,26.576" style="fill:none;stroke-width:0.050000mm;stroke:black"/>
<polygon points="283.751,26.576 283.751,40.576 297.751,40.576 297.751,26.576" style="fill:none;stroke-width:0.050000mm;stroke:black"/>
<polygon points="302.801,26.576 302.801,40.576 316.801,40.576 316.801,26.576" style="fill:none;stroke-width:0.050000mm;stroke:black"/>
<polygon points="17.051,7.526 17.051,21.526 31.051,21.526 31.051,7.526" style="fill:none;stroke-width:0.050000mm;stroke:black"/>
<polygon points="36.101,7.526 36.101,21.526 50.101,21.526 50.101,7.526" style="fill:none;stroke-width:0.050000mm;stroke:black"/>
<polygon points="55.151,7.526 55.151,21.526 69.151,21.526 69.151,7.526" style="fill:none;stroke-width:0.050000mm;stroke:black"/>
<polygon points="74.201,7.526 74.201,21.526 88.201,21.526 88.201,7.526" style="fill:none;stroke-width:0.050000mm;stroke:black"/>
<polygon points="93.251,7.526 93.251,21.526 107.251,21.526 107.251,7.526" style="fill:none;stroke-width:0.050000mm;stroke:black"/>
<polygon points="112.301,7.526 112.301,21.526 126.301,21.526 126.301,7.526" style="fill:none;stroke-width:0.050000mm;stroke:black"/>
<polygon points="131.351,7.526 131.351,21.526 145.351,21.526 145.351,7.526" style="fill:none;stroke-width:0.050000mm;stroke:black"/>
<polygon points="150.401,7.526 150.401,21.526 164.401,21.526 164.401,7.526" style="fill:none;stroke-width:0.050000mm;stroke:black"/>
<polygon points="169.451,7.526 169.451,21.526 183.451,21.526 183.451,7.526" style="fill:none;stroke-width:0.050000mm;stroke:black"/>
<polygon points="188.501,7.526 188.501,21.526 202.501,21.526 202.501,7.526" style="fill:none;stroke-width:0.050000mm;stroke:black"/>
<polygon points="207.551,7.526 207.551,21.526 221.551,21.526 221.551,7.526" style="fill:none;stroke-width:0.050000mm;stroke:black"/>
<polygon points="226.601,7.526 226.601,21.526 240.601,21.526 240.601,7.526" style="fill:none;stroke-width:0.050000mm;stroke:black"/>
<polygon points="245.651,7.526 245.651,21.526 259.650,21.526 259.650,7.526" style="fill:none;stroke-width:0.050000mm;stroke:black"/>
<polygon points="264.701,7.526 264.701,21.526 278.701,21.526 278.701,7.526" style="fill:none;stroke-width:0.050000mm;stroke:black"/>
<polygon points="302.801,7.526 302.801,21.526 316.801,21.526 316.801,7.526" style="fill:none;stroke-width:0.050000mm;stroke:black"/>
</svg>
